<?xml version="1.0" encoding="utf-8"?>
<!-- Generator: Adobe Illustrator 25.0.0, SVG Export Plug-In . SVG Version: 6.00 Build 0)  -->
<svg version="1.1" id="Layer_1" xmlns="http://www.w3.org/2000/svg" xmlns:xlink="http://www.w3.org/1999/xlink" x="0px" y="0px"
	 viewBox="0 0 330 303" style="enable-background:new 0 0 330 303;" xml:space="preserve">
<style type="text/css">
	.st0{filter:url(#Adobe_OpacityMaskFilter);}
	.st1{fill-rule:evenodd;clip-rule:evenodd;fill:#FFFFFF;}
	.st2{mask:url(#mask-2_9_);fill-rule:evenodd;clip-rule:evenodd;fill:#C7F8F9;}
	.st3{fill-rule:evenodd;clip-rule:evenodd;fill:#C7F8F9;}
	.st4{fill-rule:evenodd;clip-rule:evenodd;fill:#3A3A3A;fill-opacity:0.5;}
	.st5{fill-rule:evenodd;clip-rule:evenodd;fill:#3A3A3A;}
	.st6{fill-rule:evenodd;clip-rule:evenodd;fill:#7CABFF;}
	.st7{fill-rule:evenodd;clip-rule:evenodd;fill:#241352;}
	.st8{fill-rule:evenodd;clip-rule:evenodd;fill:#FFAFA7;}
	.st9{fill-rule:evenodd;clip-rule:evenodd;fill:#003D6A;}
	.st10{fill-rule:evenodd;clip-rule:evenodd;fill:#006994;}
	.st11{fill-rule:evenodd;clip-rule:evenodd;fill:#00517F;}
	.st12{fill-rule:evenodd;clip-rule:evenodd;fill:#2F9EBE;}
	.st13{fill-rule:evenodd;clip-rule:evenodd;fill:#92EBF4;}
	.st14{fill-rule:evenodd;clip-rule:evenodd;fill:#002C68;}
	.st15{fill-rule:evenodd;clip-rule:evenodd;fill:#241352;fill-opacity:0.2;}
	.st16{fill-rule:evenodd;clip-rule:evenodd;fill:#241352;fill-opacity:0.12;}
	.st17{fill-rule:evenodd;clip-rule:evenodd;fill:#6042DD;}
	.st18{fill-rule:evenodd;clip-rule:evenodd;fill:#FCF2FC;}
	.st19{fill-rule:evenodd;clip-rule:evenodd;fill:#001F47;}
</style>
<desc>Created with Sketch.</desc>
<g>
	<g id="Group-3">
		<g>
			<defs>
				<filter id="Adobe_OpacityMaskFilter" filterUnits="userSpaceOnUse" x="0" y="0" width="329.8" height="287.9">
					<feColorMatrix  type="matrix" values="1 0 0 0 0  0 1 0 0 0  0 0 1 0 0  0 0 0 1 0"/>
				</filter>
			</defs>
			<mask maskUnits="userSpaceOnUse" x="0" y="0" width="329.8" height="287.9" id="mask-2_9_">
				<g class="st0">
					<polygon id="path-1_9_" class="st1" points="0,0 329.8,0 329.8,287.9 0,287.9 					"/>
				</g>
			</mask>
			<path id="Fill-1_10_" class="st2" d="M83.8,282.6C43.4,269,8.3,235.2,1.2,193.3s19.3-89.2,61-98.2c19.7-4.3,40.9-0.5,59.8-7.7
				c35.5-13.6,47.5-59.6,80.3-78.8c31.6-18.5,74.9-5.2,98.4,22.8c23.5,28,30.4,66.6,29,103.1c-2.1,53.6-25,111.5-73.7,134.1
				C214.7,287.8,127.9,293.2,83.8,282.6"/>
		</g>
	</g>
	<path id="Fill-4" class="st3" d="M35,273.3c8.9,14.7,27.2,20.3,43.9,19.9c16.7-0.4,33-5.3,49.7-6.3c26.4-1.6,52.4,6.8,78.4,12.1
		c26,5.3,54.4,7.2,77.6-6.2c5.7-3.3,11.2-7.7,13.5-14c2.3-6.3,0.2-14.7-5.8-17.3c-2.3-1-4.9-1.1-7.4-1.1
		c-55.7-1.1-111.4-2.2-167.1-3.2c-28.3-0.5-59.6,0-80.9,19.5"/>
	<g id="Group-132" transform="translate(12.000000, 41.000000)">
		<path id="Fill-6" class="st4" d="M262.9,66.2c-3.4,3.3-4.7,8.4-1.5,12.3c3.1,3.7,9,4.5,12.9,1.5c9.3-7.1-0.4-20.3-10.4-17.5
			c-1.9,0.5-1.4,3.1,0.4,3.2c2.9,0.2,6.1,0.3,8.4,2.3c2.5,2.2,2.6,5.9,0.5,8.4c-5.5,6.7-14.9-3.2-9.2-9.1
			C264.8,66.6,263.7,65.5,262.9,66.2"/>
		<path id="Fill-8" class="st5" d="M39.7,33.9c-3.4-1.5-7.7-1.2-10.8,0.9s-5.1,5.9-4.9,9.6c0.1,2.9,1.3,6.3-0.6,8.5
			c-1.5,1.8-4,1.9-6.1,2.9c-4,1.8-5.9,7-4.1,10.9c1,2.1,2.9,4.1,2.5,6.4c-0.2,1.5-1.4,2.7-2.7,3.4c-1.3,0.8-2.8,1.2-4.2,1.8
			c-5,2.4-8,8.1-7.9,13.6c0.1,5.5,3.2,10.7,7.6,14.1c4.4,3.4,10,5,15.5,5.2c5.6,0.2,11.4-1.1,15.6-4.7c3.2-2.7,5.3-6.4,6.8-10.3
			c2.9-7.3,4.1-15.3,3.4-23.2C49,65,46.4,57.1,45.8,48.9c-0.2-2.7-0.2-5.5-0.8-8.2c-0.6-2.7-2-5.3-4.3-6.7"/>
		<path id="Fill-10" class="st5" d="M38.4,34.9c3.2-6.5,9.4-11.5,16.5-13c4.4-1,9.2-0.6,13,1.6c3.8,2.3,6.5,6.7,5.9,11.2
			c-0.4,2.7-1.8,5.2-2.8,7.7c-0.9,2.6-1.3,5.7,0.5,7.9c1.6,1.9,4.3,2.4,6.4,3.6c3.1,1.8,5,5.3,4.8,8.8c-0.2,3.5-2.5,6.8-5.8,8.2
			c3.2,0.4,6.3,2.2,8.1,4.8c1.9,2.6,2.5,6.1,1.8,9.2c-1.1,4.5-4.8,8-8.7,10.4c-5.5,3.4-11.9,5.4-18.4,5.6
			c-6.9,0.3-14.5-1.7-18.2-7.5c-2.5-3.8-2.8-8.5-3.1-13c-0.8-13.5-1.4-27.1-2-40.6c-0.1-2.2-0.2-4.4,0.3-6.5"/>
		<path id="Fill-12" class="st4" d="M61.5,96.1l61.6,23l-5.9-24.7l16-4.1c0,0,17.2,48.4,5.3,49.7c-21,2.3-52.7-6-52.7-6L61.5,96.1z"
			/>
		<path id="Fill-14" class="st4" d="M56.1,201.6c0,0,74.4-80.8,124.7-63.2c50.3,17.6,71.5,99.9,71.5,99.9l-40-0.6
			c0,0-31.6-62.1-47-59.7c-15.4,2.4-63.1,61.6-63.1,61.6L56.1,201.6z"/>
		<path id="Fill-16" class="st4" d="M79.7,152.6l3.1,47.4c-16,19.6-71.9-5.7-71.9-5.7l-0.7-19.8l-1.3-47.2c1.3-18.8,18.8-28,18.8-28
			c7.3-3.6,18.3-5.6,28.3-5.1c10.4,0.5,13,5.5,17.3,14.9C76.8,116.6,86.2,129,79.7,152.6"/>
		<path id="Fill-18" class="st4" d="M21.3,203.2c0,0-8.5,34.6,17.5,40c26,5.4,121.8-7.3,146.8-5.1c24.9,2.2,95.9,6.3,95.9,6.3
			l5.2-41.1c0,0-110.4-5.3-122.9-2.2C151.3,204.2,21.3,203.2,21.3,203.2"/>
		<path id="Fill-20" class="st5" d="M33.8,142.7c0,0-7.8,45.8,3.2,44.6c36.2-3.7,57.8-4.2,57.8-4.2l6,12.4
			c0.1,2.1-68.6,21.7-79.6,15.2c-7.8-4.6-20.2-16.9-14.6-53.6l1.3-12.3L33.8,142.7z"/>
		<polygon id="Fill-22" class="st4" points="66.5,208.4 66.4,205.3 111.9,199 123.9,157 174.3,155.8 160.7,201.2 		"/>
		<path id="Fill-24" class="st5" d="M148.2,176.9c0.1,2-1.6,3.7-3.6,3.8c-2.1,0-3.8-1.6-3.8-3.6c-0.1-2,1.6-3.7,3.6-3.8
			C146.4,173.2,148.2,174.8,148.2,176.9"/>
		<path id="Fill-26" class="st5" d="M149.7,176.8c0.1,2.9-2.2,5.2-5.1,5.3s-5.3-2.2-5.3-5.1c-0.1-2.9,2.2-5.2,5.1-5.3
			C147.2,171.7,149.6,174,149.7,176.8"/>
		<path id="Fill-28" class="st5" d="M13.9,112.4c0,0-8.4,8.1-10.3,38.6l32.7-3.6C36.2,147.4,41.7,95.4,13.9,112.4"/>
		<path id="Fill-30" class="st4" d="M253.9,20.6c0,0,11.6,25.9,14.8,24.5c3.2-1.4,33.2-19.8,33.2-19.8S289.6,2.1,287.1,0.8
			C284.5-0.6,253.9,20.6,253.9,20.6"/>
		<path id="Fill-32" class="st5" d="M287.1,0.8c0.1,0.1-0.7,2.7-2.2,7c-1.5,4.2-3.6,10.1-6.1,16.5c-0.1,0.2-0.1,0.3-0.2,0.5
			l-0.2,0.4L278,25c-6.7-1.1-12.7-2.1-17.1-2.9s-7-1.4-7-1.5c0-0.2,2.7,0.1,7.1,0.8c4.4,0.6,10.4,1.5,17.2,2.6l-0.6,0.4
			c0.1-0.1,0.1-0.3,0.2-0.5c2.4-6.4,4.7-12.2,6.4-16.4C285.8,3.3,286.9,0.7,287.1,0.8"/>
		<path id="Fill-34" class="st5" d="M264.9,42.1c-0.3-0.1,0.6-4.3,2-9.5c1.4-5.2,2.8-9.3,3.1-9.2s-0.6,4.3-2,9.5
			C266.6,38,265.2,42.1,264.9,42.1"/>
		<path id="Fill-36" class="st5" d="M299.9,20.1c0,0.3-4.2-0.1-9.3-0.9c-5.1-0.8-9.2-1.7-9.2-2c0.1-0.3,4.2,0.1,9.3,0.9
			C295.9,18.9,300,19.8,299.9,20.1"/>
		<path id="Fill-38" class="st5" d="M30.3,48.4l0.7,9.7c0,0-8.3,1.1-5.9,8.6c2.4,7.5,8,4.2,8,4.2s1.4,19.3,21.3,13.2
			c15.8-4.9,14.8-25.2,12.8-42.5c-0.8-6.7-7.2-11.3-13.8-10l-11.9,2.3C34.5,35.2,29.7,41.4,30.3,48.4"/>
		<path id="Fill-40" class="st5" d="M31,66.1l5.3,28.3c1.2,6.4,7.5,10.5,13.9,9c5.9-1.4,9.7-7.1,8.6-13l-2.9-16.2L31,66.1z"/>
		<path id="Fill-42" class="st5" d="M52.9,66.4c0.1-0.1,0.2,0.3,0.6,0.3c0.4,0,0.9-0.3,1-1.1c0.2-0.8,0.1-1.8,0-2.9
			c-0.1-1.2-0.2-2.5-0.3-3.8c-0.3-5.4-0.4-9.7,0-9.7c0.3,0,0.8,4.3,1.2,9.7c0.1,1.3,0.1,2.5,0.2,3.8c0,1.1,0.1,2.3-0.2,3.2
			c-0.3,1-1.3,1.6-1.9,1.3C52.8,66.9,52.9,66.4,52.9,66.4"/>
		<path id="Fill-44" class="st5" d="M59.4,82.1c0.1,0.1-0.7,1-2.3,1.9c-1.6,0.9-4.1,1.8-7,1.9c-2.9,0.1-5.5-0.7-7.1-1.6
			c-1.7-0.9-2.5-1.7-2.4-1.8c0.1-0.3,4,2.4,9.5,2.3C55.5,84.7,59.2,81.8,59.4,82.1"/>
		<path id="Fill-46" class="st5" d="M55.5,70.4c0.1,0.1-0.1,0.7-1,1.3c-0.8,0.6-2.4,1.1-4,0.6c-1.6-0.5-2.6-1.8-2.9-2.8
			c-0.4-1-0.2-1.7-0.1-1.7c0.2,0,0.3,0.6,0.8,1.3c0.5,0.8,1.3,1.7,2.6,2.1c1.2,0.4,2.5,0.1,3.3-0.2C54.9,70.7,55.4,70.3,55.5,70.4"
			/>
		<path id="Fill-48" class="st5" d="M30.4,67.6c0,0.1-0.5,0.4-1.3,0.1c-0.4-0.1-1-0.5-1.2-1.1c-0.1-0.3-0.2-0.7-0.1-1.1
			c0.1-0.4,0.5-0.8,0.9-0.9c0.6-0.2,1.3-0.1,1.7,0.5l-1,0.5c-0.6-1.6-0.9-2.8-0.7-2.9c0.2-0.1,0.9,0.9,1.7,2.5l-1,0.5
			c0,0-0.2-0.1-0.4,0c-0.2,0.1-0.3,0.3-0.2,0.6c0.1,0.3,0.3,0.6,0.5,0.7C29.9,67.4,30.4,67.5,30.4,67.6"/>
		<path id="Fill-50" class="st5" d="M60.9,54c-0.3,0.1-0.7-0.6-0.9-1.4c-0.2-0.9-0.1-1.6,0.2-1.7c0.3-0.1,0.7,0.6,0.9,1.4
			C61.3,53.2,61.2,54,60.9,54"/>
		<path id="Fill-52" class="st5" d="M44.1,55.6c-0.3,0.1-0.7-0.5-1-1.4c-0.2-0.9-0.2-1.6,0.1-1.7c0.3-0.1,0.7,0.5,1,1.4
			C44.4,54.8,44.4,55.5,44.1,55.6"/>
		<path id="Fill-54" class="st5" d="M45.6,48.5c-0.1,0.3-1,0.3-2,0.6c-1,0.2-1.8,0.7-2,0.5c-0.2-0.2,0.4-1.2,1.7-1.6
			C44.7,47.7,45.8,48.3,45.6,48.5"/>
		<path id="Fill-56" class="st5" d="M62.8,45.8c-0.1,0.3-1.1,0.1-2.3,0.3c-1.2,0.1-2.1,0.4-2.3,0.1C58.1,46,59,45.1,60.4,45
			C61.9,44.9,62.9,45.6,62.8,45.8"/>
		<path id="Fill-58" class="st5" d="M31,58.1c5.5-5.4,7.2-14.3,8.7-21.9c5.1,3.7,12.2,4.6,18.1,2.3c1.9,2.2,4,4.1,6.4,5.6
			c0.7,0.4,1.5,0.9,2.3,0.6c0.9-0.3,1.3-1.3,1.6-2.3c0.7-3,0.7-6.2-0.3-9.1c-1.1-2.9-3.3-5.5-6.2-6.6c-3.1-1.2-6.6-0.7-9.8,0.2
			c-4.8,1.2-9.5,3.2-13.8,5.7c-4.2,2.5-8.3,5.7-10.1,10.3C26,47.5,26,56.3,30.4,58.6"/>
		<path id="Fill-60" class="st5" d="M53.6,71.5c0.3,1.5-1,3-2.8,2.6c-1.8-0.4-2.4-2.3-1.5-3.6c0.9-1.3,2-2.1,2.7-2
			C52.6,68.8,53.3,69.9,53.6,71.5"/>
		<path id="Fill-62" class="st5" d="M46.7,62.5c0.3,1.5-1.6,3.1-4.3,3.3c-2.6,0.1-4.7-1.3-4.6-2.9c0.1-1.6,2.1-2.7,4.3-2.8
			C44.4,60,46.4,60.9,46.7,62.5"/>
		<path id="Fill-64" class="st5" d="M67.7,60.8c0.3,1.5-1.4,3.1-3.8,3.3c-2.4,0.1-4.2-1.3-4.1-2.9c0.2-1.6,1.8-2.7,3.8-2.8
			C65.6,58.3,67.4,59.2,67.7,60.8"/>
		<path id="Fill-66" class="st5" d="M30.8,83.7c-0.3,0-0.5-3.1-0.7-6.9c-0.2-3.8-0.3-6.9,0-7c0.3,0,1,3,1.2,6.9
			C31.4,80.6,31.1,83.7,30.8,83.7"/>
		<path id="Fill-68" class="st4" d="M63.7,95.8C58.3,93.7,99.6,109,99.6,109L95.4,137l-15.7-5.1L63.7,95.8z"/>
		<path id="Fill-70" class="st5" d="M39.1,32.4c1.3-1.9,1.7-4.4,1.1-6.7c-0.5-1.9-1.9-3.7-3.8-3.8c-1.1-0.1-2.2,0.5-3,1.2
			c-2,1.8-2.5,5.1-1.2,7.4c1.3,2.4,4.4,3.6,7,2.9"/>
		<path id="Fill-72" class="st4" d="M285.5,212c0,0,13.4-19.1,11.8-11.9c-1.6,7.2-15.3,39.4-15.3,39.4L285.5,212z"/>
		<path id="Fill-74" class="st5" d="M91,183.1c0,0,17.7-5.5,17.1-3.7c-0.6,1.8-3.6,1.9-6.6,4.8c0,0,19.8,0.2,18.9,1.8
			c-1,1.6-13.9,2-13.9,2.3c-0.1,0.3,14.1,0.6,13.8,2.1c-0.3,1.5-13.5,1.1-13.5,1.1s12.2,1.3,12,2.9c-0.3,1.6-11.5,0.5-11.5,0.5
			s9.4,1.1,9.2,2.5c-0.1,0.9-27.6,1.1-27.7,1.8C88.6,199.6,91,183.1,91,183.1"/>
		<path id="Fill-76" class="st4" d="M118.4,95.8c0,0-10.8-15-8.8-15c1.9,0,2.9,2.8,6.6,4.8c0,0-5.9-18.7-4.1-18.3
			c1.8,0.4,6.2,12.4,6.5,12.4c0.3,0-3.8-13.5-2.3-13.6c1.5-0.2,5.3,12.3,5.3,12.3s-2.6-11.9-0.9-12.2c1.6-0.3,4,10.7,4,10.7
			s-1.9-9.2-0.4-9.4c0.9-0.1,9,22.7,9,22.7C133.1,90.2,118.4,95.8,118.4,95.8"/>
		<path id="Fill-78" class="st5" d="M19.2,137c0.1,0,0.5,0.7,0.5,2.1c0,0.7-0.3,1.7-1.2,2.3c-0.4,0.3-1,0.5-1.7,0.4
			c-0.6-0.1-1.1-0.6-1.5-0.9c-0.7-0.8-1.2-1.3-1.9-1.4c-0.7-0.1-1.3,0.1-1.7,0.5c-0.8,0.8-0.8,1.6-1,1.6c-0.1,0.1-0.5-0.9,0.4-2.2
			c0.5-0.6,1.4-1.1,2.4-1c0.5,0,1.1,0.2,1.5,0.6c0.4,0.3,0.8,0.7,1.1,1.1c1.1,1.5,2.6,0,2.7-1.1C19.1,137.9,19,137,19.2,137"/>
		<path id="Fill-80" class="st5" d="M28.8,128.7c-0.1-0.1,0.3-0.8,1.5-1.6c0.6-0.4,1.6-0.6,2.6-0.2c0.5,0.2,1,0.6,1.2,1.2
			c0.2,0.6,0.1,1.2,0,1.7c-0.3,1-0.5,1.7-0.2,2.3c0.3,0.6,0.8,1,1.3,1.2c1.1,0.3,1.8-0.2,1.9,0c0.1,0.1-0.5,1-2.1,0.8
			c-0.7-0.1-1.6-0.6-2.1-1.5c-0.2-0.5-0.4-1-0.3-1.6c0.1-0.6,0.2-1,0.4-1.5c0.7-1.8-1.3-2.2-2.3-1.7
			C29.6,128.3,28.9,128.8,28.8,128.7"/>
		<path id="Fill-82" class="st5" d="M28.2,108c-0.1-0.1,0.3-0.8,1.5-1.6c0.6-0.4,1.6-0.6,2.6-0.2c0.5,0.2,1,0.6,1.2,1.2
			c0.2,0.6,0.1,1.2,0,1.7c-0.3,1-0.5,1.7-0.2,2.3c0.3,0.6,0.8,1,1.3,1.2c1.1,0.3,1.8-0.2,1.9,0c0.1,0.1-0.5,1-2.1,0.8
			c-0.7-0.1-1.6-0.6-2.1-1.5c-0.2-0.5-0.4-1-0.3-1.6c0.1-0.6,0.2-1,0.4-1.5c0.7-1.8-1.3-2.2-2.3-1.7C29,107.6,28.3,108.1,28.2,108"
			/>
		<path id="Fill-84" class="st5" d="M48.8,135c-0.1,0.1-0.8-0.3-1.7-1.4c-0.4-0.6-0.8-1.5-0.4-2.5c0.2-0.5,0.5-1,1.1-1.3
			c0.6-0.3,1.2-0.2,1.7-0.1c1,0.2,1.7,0.4,2.3,0c0.6-0.3,1-0.9,1.1-1.4c0.2-1.1-0.3-1.8-0.2-1.9c0.1-0.1,1,0.4,1,2
			c0,0.7-0.5,1.7-1.4,2.2c-0.4,0.3-1,0.4-1.6,0.4c-0.6,0-1.1-0.1-1.5-0.2c-1.8-0.6-2.1,1.5-1.5,2.4C48.4,134.2,49,134.8,48.8,135"/>
		<path id="Fill-86" class="st5" d="M62.9,156.6c0.1,0.1-0.4,0.8-1.6,1.4c-0.6,0.3-1.6,0.5-2.6,0c-0.5-0.2-1-0.7-1.1-1.3
			c-0.2-0.6,0-1.2,0.2-1.7c0.4-1,0.6-1.6,0.4-2.3c-0.2-0.7-0.7-1.1-1.2-1.3c-1.1-0.4-1.8,0-1.9-0.1c-0.1-0.1,0.6-0.9,2.1-0.6
			c0.7,0.1,1.6,0.7,2,1.7c0.2,0.5,0.3,1,0.2,1.6c-0.1,0.5-0.3,1-0.5,1.4c-0.9,1.7,1.2,2.3,2.2,1.9C62.1,156.9,62.8,156.4,62.9,156.6
			"/>
		<path id="Fill-88" class="st5" d="M79.5,122.5c0.1,0.1-0.4,0.8-1.6,1.4c-0.6,0.3-1.6,0.5-2.6,0c-0.5-0.2-1-0.7-1.1-1.3
			c-0.2-0.6,0-1.3,0.2-1.7c0.4-1,0.6-1.6,0.4-2.3c-0.2-0.7-0.7-1.1-1.2-1.3c-1.1-0.4-1.8,0-1.9-0.1c-0.1-0.1,0.6-0.9,2.1-0.6
			c0.7,0.1,1.6,0.7,2,1.7c0.2,0.5,0.3,1,0.2,1.6c-0.1,0.5-0.3,1-0.5,1.4c-0.9,1.7,1.2,2.3,2.2,1.9C78.7,122.8,79.4,122.3,79.5,122.5
			"/>
		<path id="Fill-90" class="st5" d="M90.8,117.3c0.1-0.1,0.9,0.1,1.9,1c0.5,0.5,1,1.4,0.9,2.4c-0.1,0.5-0.3,1.1-0.9,1.5
			c-0.5,0.4-1.2,0.4-1.7,0.4c-1.1,0-1.7,0-2.3,0.4c-0.5,0.4-0.8,1-0.8,1.6c0,1.1,0.7,1.7,0.5,1.8c0,0.1-1.1-0.2-1.3-1.8
			c-0.1-0.7,0.2-1.7,0.9-2.4c0.4-0.3,0.9-0.6,1.5-0.7c0.6-0.1,1.1,0,1.5,0c1.9,0.2,1.8-1.9,1.1-2.7
			C91.4,117.9,90.7,117.4,90.8,117.3"/>
		<path id="Fill-92" class="st5" d="M45,174.3c0.1,0.1-0.4,0.8-1.6,1.4c-0.6,0.3-1.6,0.5-2.6,0c-0.5-0.2-1-0.7-1.1-1.3
			c-0.2-0.6,0-1.2,0.2-1.7c0.4-1,0.6-1.6,0.4-2.3c-0.2-0.7-0.7-1.1-1.2-1.3c-1.1-0.4-1.8,0-1.9-0.1c-0.1-0.1,0.6-0.9,2.1-0.6
			c0.7,0.1,1.6,0.7,2,1.7c0.2,0.5,0.3,1,0.2,1.6c-0.1,0.5-0.3,1-0.5,1.4c-0.9,1.7,1.2,2.3,2.2,1.9C44.2,174.6,45,174.1,45,174.3"/>
		<path id="Fill-94" class="st5" d="M69.6,141.4c-0.1,0.1-0.8-0.4-1.5-1.6c-0.3-0.6-0.6-1.6-0.1-2.6c0.2-0.5,0.6-1,1.3-1.2
			c0.6-0.2,1.3-0.1,1.7,0.1c1,0.4,1.6,0.6,2.3,0.3c0.7-0.2,1.1-0.8,1.2-1.3c0.3-1.1-0.1-1.8,0-1.9c0.1-0.1,0.9,0.5,0.7,2.1
			c-0.1,0.7-0.7,1.6-1.6,2c-0.5,0.2-1,0.3-1.6,0.2c-0.6-0.1-1-0.3-1.5-0.4c-1.7-0.8-2.3,1.2-1.8,2.2
			C69.2,140.6,69.7,141.3,69.6,141.4"/>
		<path id="Fill-96" class="st5" d="M74,159.1c-0.1,0.1-0.8-0.4-1.5-1.6c-0.3-0.6-0.6-1.6-0.1-2.6c0.2-0.5,0.6-1,1.3-1.2
			c0.6-0.2,1.3-0.1,1.7,0.1c1,0.4,1.7,0.6,2.3,0.3c0.7-0.2,1.1-0.7,1.2-1.3c0.3-1.1-0.1-1.8,0-1.9c0.1-0.1,0.9,0.5,0.7,2.1
			c-0.1,0.7-0.7,1.6-1.6,2c-0.5,0.2-1,0.3-1.6,0.2c-0.6-0.1-1-0.3-1.5-0.4c-1.7-0.8-2.3,1.2-1.8,2.2C73.6,158.3,74.1,159,74,159.1"
			/>
		<path id="Fill-98" class="st5" d="M38.5,151.5c-0.1,0-0.4-0.8-0.1-2.2c0.2-0.7,0.6-1.6,1.6-2c0.5-0.2,1.1-0.3,1.7,0
			c0.6,0.3,1,0.8,1.2,1.2c0.5,0.9,0.8,1.5,1.5,1.8c0.6,0.3,1.3,0.2,1.8-0.1c1-0.6,1.2-1.4,1.3-1.4c0.1,0,0.3,1-0.9,2
			c-0.6,0.5-1.6,0.7-2.6,0.4c-0.5-0.2-1-0.4-1.3-0.9c-0.4-0.4-0.6-0.9-0.8-1.3c-0.8-1.7-2.5-0.6-2.9,0.5
			C38.7,150.7,38.7,151.6,38.5,151.5"/>
		<path id="Fill-100" class="st5" d="M70.5,173.3c-0.1,0-0.4-0.8-0.1-2.2c0.2-0.7,0.6-1.6,1.6-2c0.5-0.2,1.1-0.3,1.7,0
			c0.6,0.3,1,0.8,1.2,1.2c0.5,0.9,0.8,1.5,1.5,1.8c0.6,0.3,1.3,0.2,1.8-0.1c1-0.6,1.2-1.4,1.3-1.4c0.1,0,0.3,1-0.9,2
			c-0.6,0.5-1.6,0.7-2.6,0.4c-0.5-0.2-1-0.4-1.3-0.9c-0.4-0.4-0.6-0.9-0.8-1.3c-0.8-1.7-2.5-0.6-2.9,0.5
			C70.8,172.5,70.7,173.4,70.5,173.3"/>
		<path id="Fill-102" class="st5" d="M69.6,107.3c-0.1,0-0.4-0.8-0.1-2.2c0.2-0.7,0.6-1.6,1.6-2c0.5-0.2,1.1-0.3,1.7,0
			c0.6,0.3,1,0.8,1.2,1.2c0.5,0.9,0.8,1.5,1.5,1.8c0.6,0.3,1.3,0.2,1.8-0.1c1-0.6,1.2-1.4,1.3-1.4c0.1,0,0.3,1-0.9,2
			c-0.6,0.5-1.6,0.7-2.6,0.4c-0.5-0.2-1-0.4-1.3-0.9c-0.4-0.4-0.6-0.9-0.8-1.3c-0.8-1.7-2.5-0.6-2.9,0.5
			C69.9,106.5,69.8,107.3,69.6,107.3"/>
		<path id="Fill-104" class="st5" d="M59.1,182.1c-0.1,0.1-0.9,0-2-0.8c-0.6-0.4-1.2-1.2-1.2-2.3c0-0.5,0.2-1.2,0.7-1.6
			c0.5-0.4,1.1-0.6,1.6-0.6c1.1-0.1,1.7-0.2,2.2-0.7c0.5-0.5,0.7-1.1,0.6-1.7c-0.1-1.1-0.9-1.6-0.8-1.7c0-0.1,1.1,0.1,1.5,1.6
			c0.2,0.7,0.1,1.7-0.6,2.5c-0.3,0.4-0.8,0.7-1.3,0.9c-0.5,0.2-1.1,0.2-1.5,0.2c-1.9,0-1.6,2.1-0.7,2.8
			C58.5,181.5,59.2,181.9,59.1,182.1"/>
		<path id="Fill-106" class="st5" d="M21.1,117.3c0.1-0.1,0.8,0.4,1.4,1.7c0.3,0.6,0.4,1.6-0.1,2.6c-0.3,0.5-0.7,0.9-1.4,1
			c-0.6,0.1-1.3-0.1-1.7-0.3c-1-0.5-1.6-0.7-2.3-0.5c-0.7,0.2-1.1,0.6-1.4,1.1c-0.5,1-0.1,1.8-0.2,1.9c-0.1,0.1-0.9-0.6-0.5-2.1
			c0.2-0.7,0.8-1.5,1.8-1.9c0.5-0.2,1.1-0.2,1.6-0.1c0.5,0.1,1,0.4,1.4,0.5c1.7,0.9,2.4-1,2-2.1C21.4,118.1,20.9,117.4,21.1,117.3"
			/>
		<path id="Fill-108" class="st5" d="M57.8,110.7c0.1-0.1,0.8,0.4,1.4,1.7c0.3,0.6,0.4,1.7-0.1,2.6c-0.3,0.5-0.7,0.9-1.4,1
			c-0.6,0.1-1.3-0.1-1.7-0.3c-1-0.5-1.6-0.7-2.3-0.5c-0.7,0.2-1.1,0.6-1.4,1.1c-0.5,1-0.1,1.8-0.2,1.9c-0.1,0.1-0.9-0.6-0.5-2.1
			c0.2-0.7,0.8-1.5,1.8-1.9c0.5-0.2,1.1-0.2,1.6-0.1c0.5,0.1,1,0.4,1.4,0.5c1.7,0.9,2.4-1,2-2.1C58.1,111.6,57.6,110.8,57.8,110.7"
			/>
		<path id="Fill-110" class="st5" d="M35.2,149.1c-0.1,0-0.1-0.8,0-2.2c0.1-1.4,0.3-3.5,0.5-6c0.5-5.1,1.2-12.1,2-19.9
			c0.2-1.9,0.3-3.8,0-5.5c-0.2-1.7-0.9-3.3-1.9-4.6c-2-2.6-4.8-3.9-7.3-4.5c-2.4-0.6-4.5-0.6-6-0.5c-1.4,0-2.2,0.1-2.2,0.1
			c0-0.1,0.8-0.3,2.2-0.5c1.4-0.2,3.6-0.3,6.2,0.2c2.6,0.5,5.7,1.8,7.9,4.6c1.1,1.4,1.9,3.2,2.2,5.1c0.3,1.9,0.2,3.9,0,5.8
			c-0.8,7.8-1.7,14.8-2.4,19.9c-0.3,2.5-0.6,4.6-0.8,6C35.4,148.4,35.3,149.2,35.2,149.1"/>
		<path id="Fill-112" class="st5" d="M36.6,147.4c0,0.3-7.4,1.3-16.6,2.3c-9.2,1-16.7,1.5-16.8,1.2c0-0.3,7.4-1.3,16.6-2.3
			C29.1,147.6,36.6,147.1,36.6,147.4"/>
		<path id="Fill-114" class="st4" d="M82.1,143.7c-0.4,0,1.4-6.6-0.6-14.4c-1.9-7.8-6.7-12.7-6.3-12.9c0.1-0.1,1.4,1,3,3.1
			c1.6,2.2,3.4,5.5,4.4,9.5c1,4,1,7.8,0.6,10.5C82.8,142.2,82.2,143.7,82.1,143.7"/>
		<path id="Fill-116" class="st4" d="M169.3,144.2c0.3-1.9,0.2-3.6,1.3-5.3c2.1-3.3,5.1-2.5,7.9-1c2.9,1.5,5.7,2.3,8.8,1
			c5-2.2,7.2-9.5,2.6-13.1c-1.5-1.2-3.1,0.7-2.8,2.2c0.3,2,1.3,4.2-0.4,5.9c-2.3,2.3-5,0.4-7.3-0.7c-2.5-1.1-5.1-1.4-7.7-0.3
			c-4.4,1.8-7.6,7.7-4.1,11.7C168,145.3,169.2,145,169.3,144.2"/>
		<path id="Fill-118" class="st4" d="M181,58.8c0.5,3,3.6,9.4,6.9,10.3c1.8,0.5,3.1-0.7,4.4-1.6c2.5-1.7,4.9-3.5,7.4-5.2
			c0.9-0.6,1.4-1.8,0.8-2.9c-2.2-3.3-4.4-6.7-6.5-10c-0.6-0.9-1.9-1.4-2.9-0.7c-2.7,1.9-5.6,3.7-8.1,5.9c-1.7,1.5,0.5,4.1,2.4,3.1
			c2.8-1.5,5.3-3.6,7.9-5.4c-1-0.2-1.9-0.5-2.9-0.7c2.2,3.3,4.4,6.7,6.5,10c0.3-1,0.5-1.9,0.8-2.9c-1.5,1-3,2.1-4.4,3.1
			c-0.7,0.5-3.8,3.3-4.6,3.1c-1-0.2-2.5-2.9-3.1-3.7c-1-1.2-2-2.4-3.4-3.3C181.6,57.4,180.9,58.2,181,58.8"/>
		<path id="Fill-120" class="st4" d="M150.1,89.9c-3.4,3.3-4.7,8.4-1.5,12.3c3.1,3.7,9,4.5,12.9,1.5c9.3-7.1-0.4-20.3-10.4-17.5
			c-1.9,0.5-1.4,3.1,0.4,3.2c2.9,0.2,6.1,0.3,8.4,2.3c2.5,2.2,2.6,5.9,0.5,8.4c-5.5,6.7-14.9-3.2-9.2-9.1
			C152,90.3,150.9,89.2,150.1,89.9"/>
		<path id="Fill-122" class="st4" d="M229,120.2c-1.2,6.1-2.2,12.2-3.1,18.4c-0.2,1.5,0.8,2.5,2.3,2.3c5.8-0.8,11.6-1.6,17.3-2.9
			c1.1-0.2,1.5-1.6,1-2.5c-3.2-5.7-7.4-13.6-13.5-16.7c-1.5-0.8-3.7,0.9-2.6,2.6c1.8,2.6,4.5,4.5,6.6,6.9c2.4,2.7,4.7,5.7,6.5,8.9
			c0.5-0.9,1-1.7,1.5-2.6c-6,0.6-11.9,1.7-17.8,2.7c0.8,0.6,1.6,1.2,2.3,1.8c0.7-6.2,1.4-12.3,1.8-18.5
			C231.4,119.2,229.2,118.9,229,120.2"/>
		<path id="Fill-124" class="st4" d="M205,90.3c0.1-1.9-3-2.4-3.4-0.5c-1.1,6.1-1.5,12.5-1.6,18.7c0,1.3,2,1.6,2.3,0.3
			C203.7,102.9,204.7,96.4,205,90.3z"/>
		<path id="Fill-126" class="st4" d="M287.1,109.1c2.3-0.1,2.2-3.2,0-3.4c-6-0.6-12.4-0.5-18.4-0.1c-1.2,0.1-1.7,2.1-0.3,2.3
			C274.5,108.8,280.9,109.4,287.1,109.1z"/>
		<path id="Fill-128" class="st4" d="M218.5,30.4c5.4,2.9,11.3,5.7,17.2,7.6c1.8,0.6,3.1-2.3,1.3-3.1c-5.5-2.7-11.7-4.9-17.6-6.6
			C218.2,28,217.3,29.8,218.5,30.4"/>
		<path id="Fill-130" class="st4" d="M235.7,79.8c-1.4-1.2-3.6-1.4-4.9,0c-1.3,1.5-1.3,3.5,0,4.9c0.1,0.1,0.2,0.2,0.3,0.3
			c1.2,1.4,3.8,1.3,5,0c1.2-1.3,1.5-3.7,0-5C235.9,79.9,235.8,79.9,235.7,79.8z"/>
	</g>
	<path id="Fill-133" class="st6" d="M271.4,101.9c-3.5,3.2-4.9,8.1-1.5,11.9c3.2,3.6,9.3,4.3,13.2,1.5c9.5-6.9-0.4-19.5-10.7-16.9
		c-1.9,0.5-1.4,3,0.5,3.1c3,0.2,6.2,0.3,8.6,2.2c2.6,2.1,2.6,5.7,0.5,8.1c-5.6,6.4-15.3-3-9.5-8.8
		C273.4,102.3,272.2,101.2,271.4,101.9"/>
	<path id="Fill-135" class="st7" d="M47.8,70.9c-3.4-1.5-7.7-1.2-10.8,0.9c-3.1,2.1-5,5.8-4.9,9.6c0.1,2.9,1.3,6.2-0.6,8.5
		c-1.5,1.7-4,1.9-6.1,2.8c-4,1.8-5.9,6.9-4.1,10.8c1,2.1,2.9,4.1,2.5,6.4c-0.2,1.5-1.4,2.7-2.7,3.4c-1.3,0.7-2.8,1.2-4.2,1.8
		c-5,2.4-8,8-7.9,13.5c0.1,5.5,3.2,10.7,7.6,14.1c4.4,3.4,9.9,5,15.5,5.2c5.5,0.2,11.3-1.1,15.6-4.6c3.2-2.7,5.3-6.4,6.8-10.2
		c2.9-7.3,4.1-15.3,3.4-23.1c-0.7-8.1-3.3-16-3.9-24.1c-0.2-2.7-0.2-5.5-0.8-8.1c-0.6-2.7-2-5.3-4.3-6.7"/>
	<path id="Fill-137" class="st7" d="M47.9,70.8c3.1-6.6,9.3-11.6,16.3-13.2c4.3-1,9-0.6,12.8,1.7c3.8,2.3,6.4,6.8,5.8,11.3
		c-0.4,2.8-1.8,5.2-2.8,7.9c-0.9,2.6-1.2,5.8,0.5,8c1.6,1.9,4.2,2.4,6.3,3.7c3,1.8,4.9,5.4,4.7,9c-0.2,3.6-2.5,6.9-5.7,8.4
		c3.2,0.4,6.2,2.2,8,4.9c1.8,2.7,2.5,6.2,1.8,9.4c-1,4.6-4.7,8.1-8.6,10.6c-5.4,3.4-11.7,5.4-18.1,5.7c-6.8,0.3-14.3-1.7-17.9-7.6
		c-2.4-3.8-2.8-8.6-3.1-13.2c-0.8-13.7-1.4-27.5-1.9-41.3c-0.1-2.2-0.2-4.5,0.3-6.6"/>
	<path id="Fill-139" class="st8" d="M69,133.7l62.2,22.5l-5.9-24.2l16.2-4c0,0,17.4,47.3,5.3,48.6c-21.1,2.2-53.1-5.9-53.1-5.9
		L69,133.7z"/>
	<path id="Fill-141" class="st9" d="M65,237.9c0,0,74-81.1,124-63.4c50,17.7,71,100.3,71,100.3l-39.8-0.6c0,0-31.4-62.4-46.8-60
		c-15.3,2.4-62.7,61.8-62.7,61.8L65,237.9z"/>
	<path id="Fill-143" class="st10" d="M87.9,189.4l3.1,47.2c-16.1,19.5-72-5.7-72-5.7l-0.7-19.7l-1.3-47
		c1.3-18.7,18.9-27.9,18.9-27.9c7.3-3.6,18.4-5.6,28.4-5.1c10.4,0.5,13,5.4,17.3,14.9C85,153.5,94.4,165.9,87.9,189.4"/>
	<path id="Fill-145" class="st11" d="M30.3,239.1c0,0-8.5,35.8,17.5,41.5c26,5.6,121.5-7.6,146.4-5.3c24.9,2.3,95.6,6.5,95.6,6.5
		l5.2-42.5c0,0-110.1-5.5-122.6-2.3C160,240.2,30.3,239.1,30.3,239.1"/>
	<path id="Fill-147" class="st8" d="M41.8,179c0,0-7.8,46.2,3.2,45.1c36.4-3.7,58-4.2,58-4.2l6,12.5c0.1,2.1-68.9,21.9-79.9,15.4
		c-7.8-4.6-20.3-17-14.6-54.1l1.3-12.4L41.8,179z"/>
	<polygon id="Fill-149" class="st12" points="75.1,245 75,241.9 120.5,235.3 132.6,192.2 183,191 169.4,237.6 	"/>
	<path id="Fill-151" class="st1" d="M157,214.9c0.1,2.2-1.7,4-3.9,4.1c-2.2,0.1-4-1.7-4.1-3.9c-0.1-2.2,1.7-4,3.9-4.1
		C155.1,210.9,156.9,212.7,157,214.9"/>
	<path id="Fill-153" class="st1" d="M158,213.4c0.1,3-2.3,5.6-5.4,5.6c-3,0.1-5.6-2.3-5.6-5.4c-0.1-3,2.3-5.6,5.4-5.6
		C155.4,207.9,157.9,210.3,158,213.4"/>
	<path id="Fill-155" class="st10" d="M22.3,148.4c0,0-8.4,8.1-10.3,38.6l32.6-3.6C44.6,183.4,50,131.4,22.3,148.4"/>
	<path id="Fill-157" class="st13" d="M262,57.6c0,0,11.6,26.8,14.8,25.4c3.2-1.4,33.2-20.5,33.2-20.5s-12.3-24-14.8-25.4
		C292.6,35.7,262,57.6,262,57.6"/>
	<path id="Fill-159" class="st14" d="M295,39c0.1,0.1-0.7,2.6-2.2,6.6c-1.5,4-3.6,9.5-6,15.6c-0.1,0.1-0.1,0.3-0.2,0.4l-0.2,0.4
		l-0.5-0.1c-6.7-1-12.7-2-17-2.8c-4.3-0.8-7-1.3-7-1.4c0-0.1,2.7,0.1,7.1,0.7c4.4,0.6,10.4,1.4,17.1,2.5l-0.6,0.3
		c0.1-0.1,0.1-0.3,0.2-0.4c2.4-6.1,4.7-11.5,6.3-15.5C293.7,41.4,294.8,38.9,295,39"/>
	<path id="Fill-161" class="st14" d="M273.1,80c-0.3-0.1,0.7-4.2,2.3-9.1c1.6-5,3.2-8.9,3.6-8.9c0.3,0.1-0.7,4.2-2.3,9.1
		C275,76.1,273.4,80.1,273.1,80"/>
	<path id="Fill-163" class="st14" d="M308,56.9c0,0.2-4.3-0.1-9.6-0.6c-5.2-0.5-9.5-1.1-9.4-1.3c0.1-0.2,4.3,0.1,9.6,0.6
		C303.8,56.2,308,56.7,308,56.9"/>
	<path id="Fill-165" class="st8" d="M39.5,85.4l0.7,9.9c0,0-8.2,1.1-5.8,8.8c2.3,7.7,7.9,4.3,7.9,4.3s1.4,19.6,21,13.4
		c15.6-5,14.6-25.7,12.6-43.3c-0.8-6.8-7.1-11.5-13.6-10.2l-11.8,2.4C43.7,71.9,39,78.3,39.5,85.4"/>
	<path id="Fill-167" class="st8" d="M40,102l5.3,29.4c1.2,6.6,7.5,10.9,13.9,9.3c5.9-1.4,9.7-7.4,8.6-13.5l-2.9-16.8L40,102z"/>
	<path id="Fill-169" class="st7" d="M62,103.2c0.1-0.1,0.2,0.3,0.4,0.3c0.3,0,0.7-0.3,0.8-1.1c0.1-0.8,0.1-1.8,0-2.9
		c-0.1-1.2-0.1-2.5-0.2-3.8c-0.3-5.3-0.3-9.7,0-9.7c0.2,0,0.6,4.3,0.9,9.7c0,1.3,0.1,2.5,0.1,3.8c0,1.1,0.1,2.3-0.2,3.2
		c-0.2,1-0.9,1.6-1.4,1.3C61.9,103.6,62,103.2,62,103.2"/>
	<path id="Fill-171" class="st7" d="M68,118c0.1,0.1-0.7,1.3-2.3,2.5c-1.6,1.2-4.2,2.4-7.1,2.5c-2.9,0.1-5.5-1-7.1-2.1
		c-1.7-1.1-2.5-2.2-2.4-2.3c0.1-0.4,4,3.2,9.5,3C64.1,121.4,67.8,117.6,68,118"/>
	<path id="Fill-173" class="st7" d="M64,107.7c0.1,0.1-0.1,0.8-1,1.4c-0.8,0.6-2.3,1.2-3.9,0.6c-1.6-0.6-2.5-2-2.9-3
		c-0.3-1.1-0.2-1.8-0.1-1.8c0.2,0,0.3,0.6,0.8,1.4c0.4,0.8,1.3,1.8,2.5,2.2c1.2,0.4,2.4,0.1,3.2-0.2C63.4,108,63.8,107.6,64,107.7"
		/>
	<path id="Fill-175" class="st7" d="M40,104.7c0,0.2-0.4,0.4-1,0.1c-0.3-0.1-0.7-0.6-0.9-1.3c-0.1-0.4-0.1-0.8,0-1.3
		c0.1-0.5,0.3-0.9,0.7-1.1c0.4-0.3,1-0.1,1.3,0.6l-0.7,0.6c-0.5-1.8-0.7-3.3-0.5-3.4c0.2-0.1,0.7,1.1,1.3,2.9l-0.7,0.6
		c0,0-0.1-0.1-0.3,0c-0.2,0.1-0.2,0.4-0.2,0.8c0.1,0.4,0.2,0.6,0.4,0.9C39.6,104.4,40,104.5,40,104.7"/>
	<path id="Fill-177" class="st7" d="M69.3,90c-0.3,0-0.7-0.4-0.8-0.9c-0.2-0.6-0.1-1,0.2-1.1s0.7,0.4,0.8,0.9
		C69.7,89.5,69.6,90,69.3,90"/>
	<path id="Fill-179" class="st7" d="M51.4,91c-0.3,0.1-0.7-0.3-0.9-0.9c-0.2-0.6-0.2-1,0.1-1.1c0.3-0.1,0.7,0.3,0.9,0.9
		C51.7,90.5,51.7,90.9,51.4,91"/>
	<path id="Fill-181" class="st7" d="M54,86.8c-0.1,0.3-1,0.3-2,0.5c-1,0.2-1.8,0.6-2,0.4c-0.2-0.2,0.4-1.1,1.7-1.4
		C53.1,86,54.1,86.5,54,86.8"/>
	<path id="Fill-183" class="st7" d="M70,82.2c-0.1,0.3-1,0.1-2,0.2c-1,0.1-1.8,0.4-2,0.1c-0.2-0.2,0.6-1,1.9-1.2
		C69.2,81.3,70.1,81.9,70,82.2"/>
	<path id="Fill-185" class="st7" d="M39.2,95.5c5.4-5.5,7-14.5,8.5-22.2c5,3.8,11.9,4.7,17.7,2.4c1.8,2.2,4,4.1,6.3,5.7
		c0.7,0.4,1.5,0.9,2.2,0.6c0.9-0.3,1.3-1.4,1.5-2.3c0.7-3.1,0.7-6.3-0.3-9.3c-1-2.9-3.2-5.5-6-6.7c-3-1.2-6.4-0.7-9.6,0.2
		c-4.7,1.3-9.3,3.2-13.5,5.8c-4.2,2.5-8.1,5.8-9.9,10.4c-1.8,4.6-1.8,13.6,2.5,15.9"/>
	<path id="Fill-187" class="st15" d="M58.6,110.9c-1.5-0.4-2-2.4-1.3-3.8c0.7-1.4,1.7-2.2,2.3-2.1c0.6,0.2,1.2,1.4,1.4,3.1
		C61.2,109.7,60.1,111.3,58.6,110.9z"/>
	<path id="Fill-189" class="st16" d="M51.1,103c-2.4,0.1-4.2-1.4-4.1-3c0.1-1.7,1.9-2.8,3.9-2.9c2-0.1,3.8,0.9,4.1,2.5
		C55.2,101.2,53.5,102.9,51.1,103z"/>
	<path id="Fill-191" class="st16" d="M72.1,102c-2.4,0.1-4.3-1.4-4.1-3c0.2-1.7,1.9-2.8,3.8-2.9c2-0.1,3.8,0.9,4.1,2.5
		C76.3,100.1,74.6,101.9,72.1,102z"/>
	<path id="Fill-193" class="st17" d="M40.2,120c-0.3,0-0.5-3.1-0.6-7c-0.2-3.8-0.3-7,0-7c0.3,0,0.9,3.1,1.1,7
		C40.8,116.9,40.5,120,40.2,120"/>
	<path id="Fill-195" class="st10" d="M73.5,132.2c-5.2-2.1,34.5,13,34.5,13l-4,27.8l-15.1-5.1L73.5,132.2z"/>
	<path id="Fill-197" class="st7" d="M47.8,69.7c1.2-2.2,1.5-4.9,1-7.4c-0.4-2.1-1.7-4.1-3.4-4.2c-1-0.1-1.9,0.5-2.7,1.4
		c-1.8,2-2.2,5.6-1.1,8.2s3.9,4,6.2,3.2"/>
	<path id="Fill-199" class="st7" d="M293.4,248.5c0,0,13.1-19.1,11.5-11.9C303.3,243.9,290,276,290,276L293.4,248.5z"/>
	<path id="Fill-201" class="st8" d="M99.4,219.2c0,0,17.9-5.7,17.3-3.8c-0.6,1.9-3.7,2-6.7,5c0,0,20,0.2,19,1.9
		c-1,1.7-14,2.1-14.1,2.4c-0.1,0.3,14.2,0.6,13.9,2.2c-0.3,1.6-13.6,1.2-13.6,1.2s12.3,1.3,12.1,3c-0.3,1.7-11.6,0.5-11.6,0.5
		s9.5,1.1,9.3,2.6c-0.1,0.9-27.9,1.1-27.9,1.8C97,236.4,99.4,219.2,99.4,219.2"/>
	<path id="Fill-203" class="st8" d="M126.5,132c0,0-11.2-14.6-9.2-14.6c2,0,3,2.8,6.9,4.6c0,0-6.2-18.2-4.3-17.8
		c1.9,0.4,6.5,12.1,6.8,12.1c0.3,0-4-13.1-2.4-13.3c1.6-0.2,5.5,12,5.5,12s-2.7-11.6-1-11.9c1.7-0.3,4.2,10.4,4.2,10.4s-2-9-0.5-9.2
		c0.9-0.1,9.4,22.1,9.4,22.1C141.8,126.5,126.5,132,126.5,132"/>
	<path id="Fill-205" class="st18" d="M27.5,174c0.1,0,0.5,0.7,0.5,2.2c0,0.7-0.3,1.7-1,2.4c-0.4,0.3-0.9,0.5-1.5,0.4
		c-0.6-0.1-1-0.6-1.3-1c-0.6-0.8-1-1.3-1.7-1.4c-0.6-0.1-1.2,0.1-1.5,0.5c-0.7,0.8-0.7,1.7-0.9,1.7c-0.1,0.1-0.5-1,0.3-2.2
		c0.4-0.6,1.2-1.1,2.1-1c0.4,0,0.9,0.2,1.3,0.6c0.4,0.3,0.7,0.8,1,1.1c1,1.6,2.3,0,2.4-1.1C27.5,174.9,27.4,174,27.5,174"/>
	<path id="Fill-207" class="st18" d="M36,165.1c-0.1-0.1,0.3-0.9,1.5-1.7c0.6-0.4,1.5-0.7,2.5-0.2c0.5,0.2,1,0.7,1.2,1.3
		c0.2,0.7,0.1,1.3,0,1.9c-0.3,1.1-0.5,1.8-0.2,2.5c0.3,0.7,0.8,1.1,1.3,1.3c1,0.3,1.8-0.2,1.8,0c0.1,0.1-0.5,1-2,0.8
		c-0.7-0.1-1.6-0.7-2-1.6c-0.2-0.5-0.3-1.1-0.3-1.7c0.1-0.6,0.2-1.1,0.3-1.6c0.7-1.9-1.3-2.4-2.2-1.8
		C36.8,164.7,36.1,165.3,36,165.1"/>
	<path id="Fill-209" class="st18" d="M36,144.1c-0.1-0.1,0.3-0.9,1.5-1.7c0.6-0.4,1.5-0.7,2.5-0.2c0.5,0.2,1,0.7,1.2,1.3
		c0.2,0.7,0.1,1.3,0,1.9c-0.3,1.1-0.5,1.8-0.2,2.5c0.3,0.7,0.8,1.1,1.3,1.3c1,0.3,1.8-0.2,1.8,0c0.1,0.1-0.5,1-2,0.8
		c-0.7-0.1-1.6-0.7-2-1.6c-0.2-0.5-0.3-1.1-0.3-1.7c0.1-0.6,0.2-1.1,0.3-1.6c0.7-1.9-1.3-2.4-2.2-1.8
		C36.8,143.7,36.1,144.3,36,144.1"/>
	<path id="Fill-211" class="st18" d="M57.5,172c-0.1,0.1-0.9-0.2-1.9-1.3c-0.4-0.5-0.9-1.4-0.5-2.3c0.2-0.5,0.6-1,1.2-1.2
		c0.7-0.3,1.4-0.2,1.9-0.1c1.2,0.2,1.9,0.3,2.6,0c0.7-0.3,1.1-0.8,1.2-1.3c0.2-1-0.4-1.7-0.2-1.7c0.1-0.1,1.1,0.4,1.1,1.8
		c0,0.7-0.5,1.6-1.5,2c-0.5,0.2-1.1,0.4-1.7,0.4c-0.6,0-1.2-0.1-1.7-0.2c-2-0.5-2.4,1.4-1.7,2.3C57,171.3,57.7,171.9,57.5,172"/>
	<path id="Fill-213" class="st18" d="M72,193.2c0.1,0.1-0.4,0.8-1.7,1.5c-0.6,0.3-1.6,0.5-2.6,0c-0.5-0.2-1-0.7-1.1-1.4
		c-0.2-0.6,0-1.3,0.2-1.8c0.4-1,0.6-1.7,0.4-2.4c-0.2-0.7-0.7-1.1-1.2-1.3c-1.1-0.4-1.8,0-1.9-0.1c-0.1-0.1,0.6-0.9,2.1-0.7
		c0.7,0.1,1.6,0.8,2,1.7c0.2,0.5,0.3,1.1,0.2,1.6c-0.1,0.6-0.3,1.1-0.5,1.5c-0.9,1.7,1.2,2.4,2.2,2C71.2,193.5,71.9,193,72,193.2"/>
	<path id="Fill-215" class="st18" d="M89,159.2c0.1,0.1-0.4,0.8-1.7,1.5c-0.6,0.3-1.6,0.5-2.6,0c-0.5-0.2-1-0.7-1.1-1.4
		c-0.2-0.6,0-1.3,0.2-1.8c0.4-1,0.6-1.7,0.4-2.4c-0.2-0.7-0.7-1.1-1.2-1.3c-1.1-0.4-1.8,0-1.9-0.1c-0.1-0.1,0.6-0.9,2.1-0.7
		c0.7,0.1,1.6,0.8,2,1.7c0.2,0.5,0.3,1.1,0.2,1.6c-0.1,0.6-0.3,1.1-0.5,1.5c-0.9,1.8,1.2,2.4,2.2,2C88.2,159.5,88.9,159,89,159.2"/>
	<path id="Fill-217" class="st18" d="M99,155c0.1-0.1,0.9,0.1,2.1,1c0.5,0.5,1.1,1.3,1,2.4c-0.1,0.5-0.3,1.1-0.9,1.5
		c-0.6,0.4-1.3,0.4-1.8,0.4c-1.2,0-1.9,0-2.5,0.4c-0.6,0.4-0.9,1-0.9,1.5c0,1.1,0.7,1.7,0.6,1.8c0,0.1-1.1-0.2-1.4-1.7
		c-0.1-0.7,0.2-1.7,1-2.4c0.4-0.3,0.9-0.6,1.6-0.7c0.6-0.1,1.1,0,1.6,0c2,0.2,1.9-1.8,1.1-2.6C99.6,155.7,98.8,155.2,99,155"/>
	<path id="Fill-219" class="st18" d="M53,211.2c0.1,0.1-0.4,0.8-1.7,1.5c-0.6,0.3-1.6,0.5-2.6,0c-0.5-0.2-1-0.7-1.1-1.4
		c-0.2-0.6,0-1.3,0.2-1.8c0.4-1,0.6-1.7,0.4-2.4c-0.2-0.7-0.7-1.1-1.2-1.3c-1.1-0.4-1.9,0-1.9-0.1c-0.1-0.1,0.6-0.9,2.1-0.7
		c0.7,0.1,1.6,0.8,2,1.7c0.2,0.5,0.3,1.1,0.2,1.6c-0.1,0.6-0.3,1.1-0.5,1.5c-0.9,1.8,1.2,2.4,2.2,2C52.2,211.5,52.9,211,53,211.2"/>
	<path id="Fill-221" class="st18" d="M78,178c-0.1,0.1-0.8-0.3-1.6-1.5c-0.4-0.6-0.6-1.6-0.1-2.5c0.2-0.5,0.7-1,1.3-1.2
		c0.7-0.2,1.3-0.1,1.8,0.1c1.1,0.4,1.7,0.6,2.4,0.3c0.7-0.2,1.1-0.7,1.3-1.2c0.4-1.1-0.1-1.8,0-1.9c0.1-0.1,1,0.5,0.8,2.1
		c-0.1,0.7-0.7,1.6-1.7,2c-0.5,0.2-1.1,0.3-1.7,0.2c-0.6-0.1-1.1-0.3-1.5-0.4c-1.8-0.8-2.4,1.2-1.9,2.2
		C77.6,177.2,78.1,177.9,78,178"/>
	<path id="Fill-223" class="st18" d="M83,195c-0.1,0.1-0.8-0.3-1.6-1.6c-0.4-0.6-0.6-1.6-0.1-2.5c0.2-0.5,0.7-1,1.3-1.2
		c0.7-0.2,1.3-0.1,1.8,0.1c1.1,0.4,1.7,0.6,2.4,0.3c0.7-0.2,1.1-0.7,1.3-1.2c0.4-1.1-0.1-1.8,0-1.9c0.1-0.1,1,0.5,0.8,2.1
		c-0.1,0.7-0.7,1.6-1.7,2c-0.5,0.2-1.1,0.3-1.7,0.2c-0.6-0.1-1.1-0.3-1.5-0.4c-1.8-0.8-2.4,1.2-1.9,2.2
		C82.6,194.2,83.1,194.9,83,195"/>
	<path id="Fill-225" class="st18" d="M47.2,189c-0.1,0-0.3-0.9-0.1-2.5c0.1-0.8,0.6-1.8,1.6-2.3c0.5-0.2,1.1-0.3,1.7,0
		c0.6,0.3,0.9,0.9,1.2,1.4c0.5,1.1,0.8,1.7,1.5,2c0.6,0.3,1.2,0.2,1.7-0.1c0.9-0.6,1.1-1.6,1.3-1.6c0.1,0,0.3,1.2-0.8,2.3
		c-0.6,0.5-1.5,0.9-2.4,0.5c-0.5-0.2-0.9-0.5-1.3-1c-0.3-0.5-0.6-1-0.8-1.5c-0.7-2-2.4-0.7-2.7,0.5C47.4,188,47.4,189,47.2,189"/>
	<path id="Fill-227" class="st18" d="M79.2,211c-0.1,0-0.3-0.9-0.1-2.5c0.1-0.8,0.6-1.8,1.6-2.3c0.5-0.2,1.1-0.3,1.7,0
		c0.6,0.3,0.9,0.9,1.2,1.4c0.5,1.1,0.8,1.7,1.5,2c0.6,0.3,1.2,0.2,1.7-0.1c0.9-0.6,1.1-1.6,1.3-1.6c0.1,0,0.3,1.2-0.8,2.3
		c-0.6,0.5-1.5,0.9-2.4,0.5c-0.5-0.2-0.9-0.5-1.3-1c-0.3-0.5-0.6-1-0.8-1.5c-0.7-2-2.4-0.7-2.7,0.5C79.4,210,79.4,211,79.2,211"/>
	<path id="Fill-229" class="st18" d="M79.2,144c-0.1,0-0.3-0.9-0.1-2.5c0.1-0.8,0.6-1.8,1.6-2.3c0.5-0.2,1.1-0.3,1.7,0
		c0.6,0.3,0.9,0.9,1.2,1.4c0.5,1.1,0.8,1.7,1.5,2c0.6,0.3,1.2,0.2,1.7-0.1c0.9-0.6,1.1-1.6,1.3-1.6c0.1-0.1,0.3,1.2-0.8,2.3
		c-0.6,0.5-1.5,0.9-2.4,0.5c-0.5-0.2-0.9-0.5-1.3-1c-0.3-0.5-0.6-1-0.8-1.5c-0.7-2-2.4-0.7-2.7,0.5C79.4,143.1,79.4,144,79.2,144"/>
	<path id="Fill-231" class="st18" d="M67.8,219c-0.1,0.1-1,0-2.4-0.8c-0.6-0.4-1.4-1.2-1.4-2.2c0-0.5,0.2-1.1,0.8-1.5
		c0.6-0.4,1.3-0.5,1.9-0.6c1.2-0.1,2-0.2,2.6-0.7c0.6-0.5,0.8-1.1,0.7-1.6c-0.2-1.1-1-1.5-0.9-1.7c0-0.1,1.3,0.1,1.8,1.5
		c0.2,0.7,0.1,1.7-0.7,2.4c-0.4,0.4-0.9,0.7-1.6,0.8c-0.6,0.2-1.2,0.2-1.8,0.2c-2.2,0-1.8,2-0.8,2.6C67,218.4,67.9,218.8,67.8,219"
		/>
	<path id="Fill-233" class="st18" d="M30.4,153c0.1-0.1,0.8,0.5,1.4,1.8c0.3,0.7,0.4,1.7-0.1,2.7c-0.3,0.5-0.7,1-1.4,1.1
		c-0.6,0.1-1.3-0.1-1.7-0.3c-1-0.5-1.6-0.8-2.3-0.5c-0.7,0.2-1.2,0.7-1.4,1.2c-0.5,1.1-0.1,1.9-0.2,2c-0.1,0.1-0.9-0.7-0.5-2.3
		c0.2-0.8,0.8-1.6,1.8-2c0.5-0.2,1.1-0.2,1.6-0.1c0.5,0.1,1,0.4,1.4,0.6c1.7,1,2.4-1.1,2-2.2C30.7,153.9,30.2,153.1,30.4,153"/>
	<path id="Fill-235" class="st18" d="M66.4,148c0.1-0.1,0.8,0.5,1.4,1.8c0.3,0.7,0.4,1.7-0.1,2.7c-0.3,0.5-0.7,1-1.4,1.1
		c-0.6,0.1-1.3-0.1-1.7-0.3c-1-0.5-1.6-0.8-2.3-0.5c-0.7,0.2-1.2,0.7-1.4,1.2c-0.5,1.1-0.1,1.9-0.2,2c-0.1,0.1-0.9-0.7-0.5-2.3
		c0.2-0.8,0.8-1.6,1.8-2c0.5-0.2,1.1-0.2,1.6-0.1c0.5,0.1,1,0.4,1.4,0.6c1.7,1,2.4-1.1,2-2.2C66.7,148.9,66.2,148.1,66.4,148"/>
	<path id="Fill-237" class="st7" d="M44.1,187c-0.1,0-0.1-0.8,0-2.3c0.1-1.5,0.3-3.7,0.5-6.3c0.5-5.3,1.2-12.7,2.1-20.8
		c0.2-2,0.3-4,0-5.8c-0.3-1.8-0.9-3.5-2-4.8c-2-2.7-4.9-4.1-7.4-4.7c-2.5-0.6-4.6-0.6-6.1-0.5c-1.5,0.1-2.3,0.1-2.3,0.1
		c0-0.1,0.8-0.3,2.2-0.5c1.5-0.2,3.6-0.3,6.3,0.2c2.6,0.5,5.8,1.9,8,4.9c1.1,1.4,2,3.3,2.2,5.3c0.3,2,0.2,4.1,0,6.1
		c-0.9,8.1-1.7,15.5-2.4,20.8c-0.3,2.7-0.6,4.8-0.9,6.3C44.3,186.2,44.2,187,44.1,187"/>
	<path id="Fill-239" class="st7" d="M47,185c0,0.2-7.5,0.7-16.9,1.3c-9.4,0.5-17,0.8-17.1,0.6c0-0.2,7.5-0.7,16.9-1.3
		C39.3,185.2,47,184.9,47,185"/>
	<path id="Fill-241" class="st7" d="M89.7,180c-0.4,0,1.4-6.5-0.6-14.2c-1.9-7.7-6.4-12.6-6.1-12.8c0.1-0.1,1.3,1,2.9,3.1
		c1.5,2.1,3.3,5.4,4.3,9.4c1,4,1,7.7,0.6,10.3C90.4,178.5,89.8,180,89.7,180"/>
	<path id="Fill-243" class="st6" d="M176.2,180.2c0.3-1.8,0.2-3.5,1.3-5.1c2-3.2,5-2.4,7.8-1c2.9,1.4,5.6,2.3,8.7,0.9
		c4.9-2.1,7.1-9.3,2.5-12.7c-1.5-1.1-3,0.7-2.8,2.1c0.3,2,1.3,4.1-0.4,5.8c-2.3,2.2-4.9,0.4-7.2-0.6c-2.4-1.1-5-1.3-7.6-0.3
		c-4.3,1.7-7.5,7.5-4,11.4C175,181.3,176.1,181,176.2,180.2"/>
	<path id="Fill-245" class="st12" d="M189,95.6c0.4,3,3.5,9.4,6.6,10.3c1.7,0.5,2.9-0.7,4.2-1.6c2.4-1.7,4.7-3.5,7.1-5.2
		c0.9-0.6,1.4-1.9,0.7-2.9c-2.1-3.4-4.2-6.7-6.3-10.1c-0.6-0.9-1.8-1.4-2.7-0.8c-2.6,1.9-5.4,3.7-7.8,6c-1.6,1.5,0.5,4.1,2.3,3.1
		c2.6-1.5,5.1-3.6,7.5-5.4c-0.9-0.3-1.8-0.5-2.8-0.8c2.1,3.4,4.2,6.7,6.3,10.1c0.2-1,0.5-1.9,0.7-2.9c-1.4,1.1-2.8,2.1-4.2,3.2
		c-0.7,0.5-3.6,3.3-4.4,3.1c-0.9-0.2-2.4-3-3-3.7c-1-1.2-1.9-2.4-3.2-3.3C189.5,94.2,188.9,94.9,189,95.6"/>
	<path id="Fill-247" class="st6" d="M159.4,126.9c-3.5,3.2-4.9,8.1-1.5,11.9c3.2,3.6,9.3,4.3,13.2,1.5c9.5-6.9-0.4-19.5-10.7-16.9
		c-1.9,0.5-1.4,3,0.5,3.1c3,0.2,6.2,0.3,8.6,2.2c2.6,2.1,2.6,5.7,0.5,8.1c-5.6,6.4-15.3-3-9.5-8.8
		C161.4,127.3,160.2,126.2,159.4,126.9"/>
	<path id="Fill-249" class="st19" d="M237,156.7c-1.1,6.3-2.1,12.6-3,18.9c-0.2,1.5,0.8,2.6,2.2,2.3c5.6-0.9,11.1-1.7,16.6-3
		c1.1-0.3,1.5-1.6,1-2.6c-3.1-5.9-7.1-14-12.9-17.2c-1.5-0.8-3.6,0.9-2.5,2.6c1.7,2.7,4.3,4.7,6.3,7.1c2.3,2.8,4.5,5.9,6.2,9.2
		c0.5-0.9,0.9-1.8,1.4-2.6c-5.7,0.6-11.4,1.7-17.1,2.8c0.7,0.6,1.5,1.2,2.2,1.8c0.7-6.4,1.3-12.7,1.7-19.1
		C239.3,155.7,237.3,155.4,237,156.7"/>
	<path id="Fill-251" class="st19" d="M209.8,145.2c1.6-6,2.9-12.4,3.2-18.5c0.1-1.9-3.7-2.4-4.1-0.5c-1.4,6-1.9,12.5-1.9,18.6
		C207,146.1,209.4,146.5,209.8,145.2"/>
	<path id="Fill-253" class="st12" d="M276.8,144.4c5.8,1.1,11.8,1.8,17.6,1.6c2.1-0.1,2.1-4.1,0-4.4c-5.7-0.8-11.7-0.6-17.3-0.1
		C275.9,141.6,275.5,144.1,276.8,144.4"/>
	<path id="Fill-255" class="st19" d="M227.5,68c5.2,2.7,10.8,5.2,16.4,6.9c1.8,0.5,3-2.1,1.3-2.9c-5.2-2.5-11.2-4.5-16.8-6
		C227.2,65.7,226.4,67.4,227.5,68"/>
	<path id="Fill-257" class="st7" d="M244.9,116.4c-0.1-0.1-0.2-0.2-0.3-0.3c-1.5-1.3-4-1.6-5.4,0c-1.5,1.6-1.4,3.8,0,5.4
		c0.1,0.1,0.2,0.2,0.3,0.3c1.3,1.5,4.1,1.5,5.5,0C246.2,120.4,246.5,117.8,244.9,116.4"/>
	<path id="Fill-259" class="st3" d="M109.6,5.6c-6.1,2.1-11.1,7.3-13.3,13.6c-2.2,6.3-1.6,13.7,1.7,19.5C104.1,50,120,53.6,130.1,46
		c10-7.5,12-24.5,3.9-34.4c-8.1-9.8-24.3-10.3-32.9-0.9"/>
</g>
</svg>
